<?xml version="1.0" encoding="UTF-8"?>
<svg width="78px" height="90px" viewBox="0 0 78 90" version="1.1" xmlns="http://www.w3.org/2000/svg" xmlns:xlink="http://www.w3.org/1999/xlink">
    <!-- Generator: Sketch 52.1 (67048) - http://www.bohemiancoding.com/sketch -->
    <title>Icon - User</title>
    <desc>Created with Sketch.</desc>
    <defs>
        <path d="M32.7993928,47.5232503 C34.4135637,49.0580677 36.5967818,50 39,50 C41.4041417,50 43.5881142,49.0573437 45.2024678,47.5214807 L48.5724788,49.5434873 C50.0785058,50.4471035 51,52.0746376 51,53.8309519 L51,55 C51,56.1045695 50.1045695,57 49,57 L29,57 C27.8954305,57 27,56.1045695 27,55 L27,54 C27,52.1389119 27.9768233,50.4143921 29.5730435,49.4574543 L32.7993928,47.5232503 Z M39,33 C42.3137085,33 45,35.6862915 45,39 L45,41 C45,44.3137085 42.3137085,47 39,47 C35.6862915,47 33,44.3137085 33,41 L33,39 C33,35.6862915 35.6862915,33 39,33 Z" id="path-1"></path>
    </defs>
    <g id="v4" stroke="none" stroke-width="1" fill="none" fill-rule="evenodd">
        <g id="Home---Multi-instance" transform="translate(-601.000000, -470.000000)">
            <g id="Group-5" transform="translate(490.000000, 440.000000)">
                <g id="Icon---User" transform="translate(111.000000, 30.000000)">
                    <path d="M40.9711432,1.15470054 L75.9422863,21.3452995 C77.1798906,22.0598306 77.9422863,23.3803387 77.9422863,24.8094011 L77.9422863,65.1905989 C77.9422863,66.6196613 77.1798906,67.9401694 75.9422863,68.6547005 L40.9711432,88.8452995 C39.7335389,89.5598306 38.2087475,89.5598306 36.9711432,88.8452995 L2,68.6547005 C0.762395693,67.9401694 6.2347499e-14,66.6196613 6.21724894e-14,65.1905989 L4.08562073e-14,24.8094011 C3.81426729e-14,23.3803387 0.762395693,22.0598306 2,21.3452995 L36.9711432,1.15470054 C38.2087475,0.440169359 39.7335389,0.440169359 40.9711432,1.15470054 Z" id="Polygon" fill="#E9F6FE"></path>
                    <mask id="mask-2" fill="white">
                        <use xlink:href="#path-1"></use>
                    </mask>
                    <use id="Mask" fill="#22A5F7" xlink:href="#path-1"></use>
                    <rect id="Rectangle-2-Copy" fill="#59BCF9" mask="url(#mask-2)" x="39" y="33" width="12" height="24"></rect>
                </g>
            </g>
        </g>
    </g>
</svg>