<?xml version="1.0" encoding="UTF-8"?>
<svg width="78px" height="90px" viewBox="0 0 78 90" version="1.1" xmlns="http://www.w3.org/2000/svg" xmlns:xlink="http://www.w3.org/1999/xlink">
    <!-- Generator: Sketch 52.1 (67048) - http://www.bohemiancoding.com/sketch -->
    <title>Group 11</title>
    <desc>Created with Sketch.</desc>
    <defs>
        <path d="M35,46 L29.2839851,46 C28.7317003,46 28.2839851,45.5522847 28.2839851,45 C28.2839851,44.74861 28.3786688,44.5064422 28.5491816,44.3217199 L38.2651966,33.7960371 C38.6398003,33.3902163 39.2724594,33.36491 39.6782801,33.7395137 C39.697867,33.757594 39.7167232,33.7764501 39.7348034,33.7960371 L49.4508184,44.3217199 C49.8254221,44.7275406 49.8001158,45.3601997 49.394295,45.7348034 C49.2095728,45.9053163 48.9674049,46 48.7160149,46 L43,46 L43,55.5 C43,56.3284271 42.3284271,57 41.5,57 L36.5,57 C35.6715729,57 35,56.3284271 35,55.5 L35,46 Z" id="path-1"></path>
    </defs>
    <g id="v4" stroke="none" stroke-width="1" fill="none" fill-rule="evenodd">
        <g id="Home---Multi-instance" transform="translate(-933.000000, -470.000000)">
            <g id="Group-7" transform="translate(820.000000, 440.000000)">
                <g id="Group-11" transform="translate(113.000000, 30.000000)">
                    <path d="M40.9711432,1.15470054 L75.9422863,21.3452995 C77.1798906,22.0598306 77.9422863,23.3803387 77.9422863,24.8094011 L77.9422863,65.1905989 C77.9422863,66.6196613 77.1798906,67.9401694 75.9422863,68.6547005 L40.9711432,88.8452995 C39.7335389,89.5598306 38.2087475,89.5598306 36.9711432,88.8452995 L2,68.6547005 C0.762395693,67.9401694 6.2347499e-14,66.6196613 6.21724894e-14,65.1905989 L4.08562073e-14,24.8094011 C3.81426729e-14,23.3803387 0.762395693,22.0598306 2,21.3452995 L36.9711432,1.15470054 C38.2087475,0.440169359 39.7335389,0.440169359 40.9711432,1.15470054 Z" id="Polygon" fill="#E9F6FE"></path>
                    <mask id="mask-2" fill="white">
                        <use xlink:href="#path-1"></use>
                    </mask>
                    <use id="Combined-Shape" fill="#22A5F7" xlink:href="#path-1"></use>
                    <polygon id="Rectangle-2" fill="#59BCF9" mask="url(#mask-2)" points="39 33 50 33 50 57 43 57 39 53"></polygon>
                </g>
            </g>
        </g>
    </g>
</svg>